<svg width="96" height="96" viewBox="0 0 96 96" fill="none" xmlns="http://www.w3.org/2000/svg">
<path d="M47.9142 89.7432C40.3993 89.7432 33.5013 87.3977 29.0601 83.8945C26.8048 84.5228 23.9197 85.5341 22.099 86.788C20.5411 87.8604 20.7353 88.9542 21.0162 89.3958C22.249 91.3354 42.1646 90.6343 47.9142 90.0302V89.7432Z" fill="#FAAD08"/>
<path d="M46.5626 89.7432C54.0773 89.7432 60.9754 87.3977 65.4167 83.8945C67.672 84.5228 70.557 85.5341 72.3779 86.788C73.9356 87.8604 73.7413 88.9542 73.4607 89.3958C72.2279 91.3354 52.3122 90.6343 46.5625 90.0302V89.7432H46.5626Z" fill="#FAAD08"/>
<path d="M46.6057 44.4871C58.9746 44.4049 68.8872 42.0699 72.2461 41.1739C73.0468 40.9602 73.4752 40.5773 73.4752 40.5773C73.478 40.4674 73.526 38.6131 73.526 37.6565C73.526 21.5473 65.7305 5.36041 46.56 5.35938C27.3896 5.36041 19.5938 21.5472 19.5938 37.6565C19.5938 38.6131 19.6421 40.4674 19.645 40.5773C19.645 40.5773 19.9935 40.9355 20.6321 41.1089C23.7332 41.9507 33.8324 44.4032 46.5146 44.4871H46.6057Z" fill="black"/>
<path d="M80.6513 58.1047C79.8901 55.6591 78.8509 52.8072 77.7988 50.0684C77.7988 50.0684 77.1935 49.9939 76.8877 50.0823C67.4462 52.8203 56.0027 54.5652 47.2822 54.46H47.192C38.5203 54.5642 27.1546 52.8392 17.7448 50.1281C17.3852 50.0246 16.6754 50.0685 16.6754 50.0685C15.6232 52.8072 14.5842 55.6591 13.823 58.1047C10.1932 69.7659 11.3691 74.5917 12.2646 74.6999C14.1861 74.9319 19.744 65.9215 19.744 65.9215C19.744 75.0771 28.0244 89.1356 46.9855 89.2648C47.1532 89.2642 47.3209 89.2642 47.4887 89.2648C66.45 89.1356 74.7301 75.0772 74.7301 65.9216C74.7301 65.9216 80.2879 74.932 82.2097 74.7C83.105 74.5918 84.2809 69.766 80.6513 58.1047Z" fill="black"/>
<path d="M40.7249 29.7097C38.1093 29.8259 35.8739 26.8872 35.7337 23.1513C35.5914 19.4128 37.5954 16.2881 40.2116 16.1712C42.8249 16.0565 45.0587 18.9939 45.2008 22.7313C45.3439 26.4698 43.3395 29.5938 40.7249 29.7097ZM60.1003 23.1513C59.9602 26.8872 57.7246 29.8257 55.109 29.7097C52.4945 29.5936 50.49 26.4697 50.6332 22.7314C50.775 18.9938 53.0089 16.0563 55.6222 16.1713C58.2387 16.2882 60.2426 19.4128 60.1003 23.1513Z" fill="white"/>
<path d="M64.1183 34.5603C63.4318 32.9095 56.5187 31.0703 47.9602 31.0703H47.8683C39.3099 31.0703 32.3967 32.9095 31.7103 34.5603C31.6775 34.6343 31.6605 34.7143 31.6602 34.7952C31.6602 34.9142 31.697 35.0215 31.7545 35.1126C32.3327 36.0281 40.0095 40.5518 47.8684 40.5518H47.9603C55.8191 40.5518 63.4956 36.0284 64.0741 35.1128C64.135 35.0178 64.1675 34.9074 64.1681 34.7945C64.1681 34.7104 64.1493 34.6318 64.1183 34.5603Z" fill="#FAAD08"/>
<path d="M43.841 24.034C43.9592 25.5233 43.1495 26.8465 42.0349 26.991C40.9186 27.1358 39.919 26.0458 39.8002 24.5556C39.6837 23.0654 40.4922 21.7423 41.6049 21.5989C42.7231 21.4537 43.7243 22.5447 43.841 24.034ZM50.6939 24.7779C50.9314 24.3918 52.5527 22.3619 55.9083 23.1011C56.7896 23.2951 57.1973 23.5807 57.2834 23.6932C57.4104 23.8591 57.4452 24.0954 57.3164 24.4136C57.0612 25.044 56.5347 25.0269 56.2426 24.9035C56.0541 24.8238 53.7169 23.4139 51.564 25.5178C51.4159 25.6627 51.151 25.7123 50.8998 25.5405C50.6487 25.3686 50.5448 25.0199 50.6939 24.7779Z" fill="black"/>
<path d="M47.2799 54.7978H47.1892C41.2297 54.8683 34.0037 54.0943 27.0062 52.7428C26.407 56.1424 26.0452 60.4152 26.3559 65.5112C27.1406 78.391 34.9453 86.4865 46.992 86.6046H47.4816C59.5283 86.4865 67.333 78.391 68.1179 65.5112C68.4286 60.4148 68.0666 56.142 67.4673 52.7422C60.4684 54.0943 53.2412 54.8688 47.2799 54.7978Z" fill="white"/>
<path d="M30.3086 54.0938V66.9814C30.3086 66.9814 36.3983 68.1725 42.499 67.3479V55.4601C38.6342 55.248 34.4657 54.7753 30.3086 54.0938Z" fill="#EB1C26"/>
<path d="M73.8839 40.5508C73.8839 40.5508 62.4482 44.3371 47.283 44.4451H47.1928C32.0524 44.3375 20.6308 40.5637 20.5918 40.5508L16.7617 50.5775C26.3417 53.6066 38.2152 55.5589 47.1928 55.4456L47.2828 55.4454C56.261 55.5594 68.1328 53.607 77.714 50.5775L73.8839 40.5508Z" fill="#EB1C26"/>
</svg>
