<svg width="94" height="94" viewBox="0 0 94 94" fill="none" xmlns="http://www.w3.org/2000/svg">
<g clip-path="url(#clip0_139_973)">
<rect x="16.293" y="22.5586" width="62.04" height="52.64" fill="white"/>
<path d="M30.9711 31.3789C29.341 31.3789 27.7109 32.4656 27.7109 34.0957C27.7109 35.7257 29.341 36.8124 30.9711 36.8124C32.6011 36.8124 33.6878 35.7257 33.6878 34.0957C33.6878 32.3977 32.6011 31.3789 30.9711 31.3789ZM53.0448 47.1361C51.958 47.1361 50.9393 48.2908 50.9393 49.3095C50.9393 50.4642 52.026 51.483 53.0448 51.483C54.6748 51.483 55.7615 50.3962 55.7615 49.3095C55.7615 48.2228 54.6748 47.1361 53.0448 47.1361ZM46.0491 36.8124C47.6791 36.8124 48.7659 35.6578 48.7659 34.0957C48.7659 32.4656 47.6791 31.3789 46.0491 31.3789C44.419 31.3789 42.789 32.4656 42.789 34.0957C42.789 35.7257 44.419 36.8124 46.0491 36.8124ZM64.8627 47.1361C63.776 47.1361 62.7572 48.2908 62.7572 49.3095C62.7572 50.4642 63.8439 51.483 64.8627 51.483C66.4927 51.483 67.5794 50.3962 67.5794 49.3095C67.5794 48.2228 66.4927 47.1361 64.8627 47.1361Z" fill="#28C445"/>
<path d="M46.8642 0.273438C20.987 0.273438 0 21.2604 0 47.1376C0 73.0148 20.987 94.0018 46.8642 94.0018C72.7413 94.0018 93.7283 73.0148 93.7283 47.1376C93.7283 21.2604 72.7413 0.273438 46.8642 0.273438ZM37.9668 59.1593C35.25 59.1593 33.0766 58.6159 30.4957 58.0046L23.0246 61.8081L25.1301 55.22C19.7645 51.4165 16.5043 46.4584 16.5043 40.5494C16.5043 30.1578 26.2168 22.0075 37.9668 22.0075C48.4942 22.0075 57.7991 28.5278 59.6329 37.2893C58.9538 37.2214 58.2746 37.1535 57.5954 37.1535C47.4075 37.2893 39.3931 44.9642 39.3931 54.4729C39.3931 56.035 39.6647 57.5292 40.0723 59.0234C39.3931 59.0914 38.646 59.1593 37.9668 59.1593ZM69.7529 66.7662L71.3829 72.1997L65.5419 68.9396C63.4364 69.483 61.263 70.0263 59.0896 70.0263C48.8338 70.0263 40.7514 62.9627 40.7514 54.2012C40.6835 45.5075 48.7659 38.444 58.9538 38.444C68.6662 38.444 77.224 45.5755 77.224 54.2691C77.224 59.1593 74.0318 63.5061 69.7529 66.7662Z" fill="#28C445"/>
</g>
<defs>
<clipPath id="clip0_139_973">
<rect width="94" height="94" fill="white"/>
</clipPath>
</defs>
</svg>
